<?xml version="1.0" encoding="iso-8859-1"?>
<!-- Generator: Adobe Illustrator 19.1.0, SVG Export Plug-In . SVG Version: 6.00 Build 0)  -->
<svg version="1.1" id="Capa_1" xmlns="http://www.w3.org/2000/svg" xmlns:xlink="http://www.w3.org/1999/xlink" x="0px" y="0px"
	 viewBox="0 0 484.457 484.457" style="enable-background:new 0 0 484.457 484.457;" xml:space="preserve">
<g  fill="white">
	<path d="M447.112,37.345C423.031,13.263,391.012,0,356.957,0c-34.057,0-66.075,13.263-90.156,37.345L166.215,137.931l21.213,21.213
		L288.013,58.558C306.428,40.143,330.913,30,356.957,30c26.043,0,50.527,10.143,68.942,28.558s28.558,42.899,28.558,68.942
		c0,26.044-10.143,50.528-28.558,68.943L325.313,297.029l21.213,21.213l100.586-100.586c24.082-24.081,37.345-56.1,37.345-90.156
		S471.194,61.426,447.112,37.345z"/>
	<path d="M196.443,425.899c-18.415,18.415-42.899,28.558-68.942,28.558s-50.527-10.143-68.943-28.558
		C40.142,407.484,30,383,30,356.957c0-26.044,10.142-50.528,28.557-68.943l100.586-100.586l-21.213-21.213L37.344,266.801
		C13.263,290.882,0,322.9,0,356.957c0,34.056,13.263,66.074,37.344,90.155c24.082,24.082,56.1,37.345,90.156,37.345
		s66.075-13.263,90.156-37.345l100.586-100.586l-21.213-21.213L196.443,425.899z"/>
	<path d="M321.688,141.552l21.213,21.213L162.768,342.898l-21.213-21.213L321.688,141.552z"/>
</g>
<g>
</g>
<g>
</g>
<g>
</g>
<g>
</g>
<g>
</g>
<g>
</g>
<g>
</g>
<g>
</g>
<g>
</g>
<g>
</g>
<g>
</g>
<g>
</g>
<g>
</g>
<g>
</g>
<g>
</g>
</svg>
